<svg width="195" height="34" viewBox="0 0 195 34" fill="none" xmlns="http://www.w3.org/2000/svg">
<path d="M46.56 15.368V12.248H51.096C51.192 12.408 51.28 12.624 51.36 12.896C51.456 13.168 51.504 13.464 51.504 13.784C51.504 14.344 51.376 14.752 51.12 15.008C50.88 15.248 50.552 15.368 50.136 15.368H46.56ZM47.16 11.48V14.888H43.296V11.336C43.296 10.248 43.536 9.368 44.016 8.696C44.496 8.008 45.136 7.504 45.936 7.184C46.752 6.864 47.648 6.704 48.624 6.704C49.808 6.704 50.68 6.864 51.24 7.184C51.8 7.488 52.08 8.016 52.08 8.768C52.08 9.088 52.008 9.376 51.864 9.632C51.736 9.888 51.592 10.08 51.432 10.208C51.128 10.128 50.808 10.064 50.472 10.016C50.152 9.952 49.776 9.92 49.344 9.92C48.656 9.92 48.12 10.04 47.736 10.28C47.352 10.504 47.16 10.904 47.16 11.48ZM43.296 14.288H47.376V22.976C47.2 23.024 46.944 23.072 46.608 23.12C46.288 23.168 45.936 23.192 45.552 23.192C44.768 23.192 44.192 23.056 43.824 22.784C43.472 22.512 43.296 22.008 43.296 21.272V14.288ZM65.0934 17.168C65.0934 18.448 64.8294 19.552 64.3014 20.48C63.7894 21.408 63.0614 22.128 62.1174 22.64C61.1894 23.136 60.0854 23.384 58.8054 23.384C57.5414 23.384 56.4374 23.136 55.4934 22.64C54.5494 22.144 53.8134 21.432 53.2854 20.504C52.7734 19.576 52.5174 18.464 52.5174 17.168C52.5174 15.904 52.7814 14.808 53.3094 13.88C53.8374 12.952 54.5734 12.24 55.5174 11.744C56.4614 11.232 57.5574 10.976 58.8054 10.976C60.0694 10.976 61.1654 11.232 62.0934 11.744C63.0374 12.256 63.7734 12.976 64.3014 13.904C64.8294 14.832 65.0934 15.92 65.0934 17.168ZM58.8054 14.168C58.1494 14.168 57.6294 14.432 57.2454 14.96C56.8774 15.472 56.6934 16.208 56.6934 17.168C56.6934 18.16 56.8774 18.912 57.2454 19.424C57.6134 19.936 58.1334 20.192 58.8054 20.192C59.4774 20.192 59.9974 19.936 60.3654 19.424C60.7334 18.896 60.9174 18.144 60.9174 17.168C60.9174 16.224 60.7254 15.488 60.3414 14.96C59.9734 14.432 59.4614 14.168 58.8054 14.168ZM79.1559 17.168C79.1559 18.448 78.8919 19.552 78.3639 20.48C77.8519 21.408 77.1239 22.128 76.1799 22.64C75.2519 23.136 74.1479 23.384 72.8679 23.384C71.6039 23.384 70.4999 23.136 69.5559 22.64C68.6119 22.144 67.8759 21.432 67.3479 20.504C66.8359 19.576 66.5799 18.464 66.5799 17.168C66.5799 15.904 66.8439 14.808 67.3719 13.88C67.8999 12.952 68.6359 12.24 69.5799 11.744C70.5239 11.232 71.6199 10.976 72.8679 10.976C74.1319 10.976 75.2279 11.232 76.1559 11.744C77.0999 12.256 77.8359 12.976 78.3639 13.904C78.8919 14.832 79.1559 15.92 79.1559 17.168ZM72.8679 14.168C72.2119 14.168 71.6919 14.432 71.3079 14.96C70.9399 15.472 70.7559 16.208 70.7559 17.168C70.7559 18.16 70.9399 18.912 71.3079 19.424C71.6759 19.936 72.1959 20.192 72.8679 20.192C73.5399 20.192 74.0599 19.936 74.4279 19.424C74.7959 18.896 74.9799 18.144 74.9799 17.168C74.9799 16.224 74.7879 15.488 74.4039 14.96C74.0359 14.432 73.5239 14.168 72.8679 14.168ZM88.6104 19.856V12.896H92.6664V20.432C92.6664 20.832 92.5784 21.176 92.4024 21.464C92.2424 21.752 91.9784 22.008 91.6104 22.232C91.1464 22.536 90.5464 22.8 89.8104 23.024C89.0744 23.264 88.2344 23.384 87.2904 23.384C85.8984 23.384 84.7064 23.152 83.7144 22.688C82.7224 22.224 81.9624 21.536 81.4344 20.624C80.9064 19.696 80.6424 18.56 80.6424 17.216C80.6424 15.808 80.9144 14.648 81.4584 13.736C82.0024 12.808 82.7384 12.12 83.6664 11.672C84.6104 11.208 85.6584 10.976 86.8104 10.976C87.3704 10.976 87.8584 11.032 88.2744 11.144C88.6904 11.256 89.0344 11.384 89.3064 11.528V14.84C89.0984 14.68 88.8264 14.528 88.4904 14.384C88.1704 14.24 87.8024 14.168 87.3864 14.168C86.8424 14.168 86.3704 14.28 85.9704 14.504C85.5864 14.728 85.2904 15.064 85.0824 15.512C84.8744 15.96 84.7704 16.528 84.7704 17.216C84.7704 18.224 84.9864 18.968 85.4184 19.448C85.8664 19.928 86.4824 20.168 87.2664 20.168C87.5544 20.168 87.8184 20.136 88.0584 20.072C88.2984 19.992 88.4824 19.92 88.6104 19.856ZM92.6664 13.664H88.5864V7.352C88.7624 7.304 89.0104 7.256 89.3304 7.208C89.6664 7.16 90.0264 7.136 90.4104 7.136C91.2104 7.136 91.7864 7.272 92.1384 7.544C92.4904 7.8 92.6664 8.304 92.6664 9.056V13.664Z" fill="#C47F17"/>
<path d="M108.366 16.448C108.222 17.184 108.03 17.952 107.79 18.752C107.566 19.552 107.35 20.296 107.142 20.984C106.934 21.672 106.774 22.208 106.662 22.592C106.454 22.784 106.15 22.936 105.75 23.048C105.366 23.176 104.91 23.24 104.382 23.24C103.742 23.24 103.174 23.152 102.678 22.976C102.198 22.784 101.878 22.52 101.718 22.184C101.574 21.864 101.414 21.416 101.238 20.84C101.062 20.248 100.878 19.576 100.686 18.824C100.51 18.056 100.334 17.264 100.158 16.448C99.9816 15.616 99.8216 14.816 99.6776 14.048C99.5336 13.264 99.4136 12.56 99.3176 11.936C99.5416 11.712 99.8376 11.52 100.206 11.36C100.59 11.184 101.006 11.096 101.454 11.096C102.014 11.096 102.47 11.224 102.822 11.48C103.19 11.72 103.414 12.144 103.494 12.752C103.654 13.968 103.79 14.976 103.902 15.776C104.014 16.576 104.102 17.224 104.166 17.72C104.246 18.2 104.302 18.576 104.334 18.848C104.382 19.12 104.422 19.336 104.454 19.496H104.55C104.63 19.144 104.758 18.608 104.934 17.888C105.11 17.152 105.318 16.312 105.558 15.368C105.798 14.424 106.03 13.472 106.254 12.512C106.574 12.336 106.894 12.2 107.214 12.104C107.534 12.008 107.918 11.96 108.366 11.96C108.926 11.96 109.406 12.048 109.806 12.224C110.206 12.4 110.462 12.672 110.574 13.04C110.83 13.968 111.07 14.864 111.294 15.728C111.518 16.592 111.71 17.352 111.87 18.008C112.046 18.664 112.166 19.16 112.23 19.496H112.35C112.526 18.264 112.694 16.984 112.854 15.656C113.03 14.312 113.19 12.96 113.334 11.6C113.91 11.264 114.534 11.096 115.206 11.096C115.766 11.096 116.23 11.216 116.598 11.456C116.966 11.696 117.15 12.112 117.15 12.704C117.15 12.96 117.11 13.344 117.03 13.856C116.95 14.352 116.846 14.92 116.718 15.56C116.59 16.2 116.438 16.872 116.262 17.576C116.102 18.28 115.934 18.96 115.758 19.616C115.598 20.272 115.438 20.864 115.278 21.392C115.134 21.904 115.006 22.304 114.894 22.592C114.686 22.784 114.342 22.936 113.862 23.048C113.398 23.176 112.902 23.24 112.374 23.24C111.03 23.24 110.238 22.904 109.998 22.232C109.87 21.848 109.702 21.344 109.494 20.72C109.286 20.08 109.078 19.384 108.87 18.632C108.678 17.88 108.51 17.152 108.366 16.448ZM123.99 20.408C124.262 20.408 124.558 20.384 124.878 20.336C125.214 20.272 125.462 20.192 125.622 20.096V18.176L123.894 18.32C123.446 18.352 123.078 18.448 122.79 18.608C122.502 18.768 122.358 19.008 122.358 19.328C122.358 19.648 122.478 19.912 122.718 20.12C122.974 20.312 123.398 20.408 123.99 20.408ZM123.798 10.976C125.542 10.976 126.934 11.336 127.974 12.056C129.03 12.76 129.558 13.864 129.558 15.368V20.744C129.558 21.16 129.438 21.504 129.198 21.776C128.974 22.032 128.702 22.256 128.382 22.448C127.87 22.752 127.246 22.984 126.51 23.144C125.774 23.304 124.934 23.384 123.99 23.384C122.31 23.384 120.958 23.064 119.934 22.424C118.926 21.768 118.422 20.784 118.422 19.472C118.422 18.368 118.75 17.52 119.406 16.928C120.078 16.336 121.094 15.968 122.454 15.824L125.598 15.488V15.32C125.598 14.856 125.39 14.528 124.974 14.336C124.574 14.128 123.99 14.024 123.222 14.024C122.63 14.024 122.038 14.088 121.446 14.216C120.87 14.344 120.35 14.504 119.886 14.696C119.678 14.552 119.502 14.336 119.358 14.048C119.214 13.744 119.142 13.432 119.142 13.112C119.142 12.344 119.55 11.8 120.366 11.48C120.83 11.304 121.374 11.176 121.998 11.096C122.638 11.016 123.238 10.976 123.798 10.976ZM136.877 22.52C135.917 22.52 135.029 22.336 134.213 21.968C133.397 21.6 132.741 21 132.245 20.168C131.765 19.32 131.525 18.208 131.525 16.832C131.525 15.552 131.781 14.48 132.293 13.616C132.805 12.736 133.525 12.08 134.453 11.648C135.397 11.2 136.493 10.976 137.741 10.976C138.653 10.976 139.493 11.096 140.261 11.336C141.045 11.576 141.645 11.832 142.061 12.104C142.381 12.312 142.629 12.56 142.805 12.848C142.997 13.136 143.093 13.496 143.093 13.928V21.488H139.181V14.456C139.021 14.376 138.845 14.312 138.653 14.264C138.461 14.2 138.213 14.168 137.909 14.168C137.221 14.168 136.661 14.384 136.229 14.816C135.797 15.232 135.581 15.912 135.581 16.856C135.581 17.864 135.773 18.552 136.157 18.92C136.557 19.288 137.053 19.472 137.645 19.472C138.125 19.472 138.525 19.392 138.845 19.232C139.165 19.056 139.453 18.864 139.709 18.656L139.829 21.848C139.461 22.04 139.037 22.2 138.557 22.328C138.093 22.456 137.533 22.52 136.877 22.52ZM139.253 22.736V20.576H143.093V22.832C143.093 23.952 142.821 24.872 142.277 25.592C141.733 26.328 140.997 26.872 140.069 27.224C139.157 27.576 138.133 27.752 136.997 27.752C136.149 27.752 135.389 27.68 134.717 27.536C134.061 27.408 133.541 27.216 133.157 26.96C132.581 26.576 132.293 26.032 132.293 25.328C132.293 24.96 132.365 24.624 132.509 24.32C132.669 24.016 132.845 23.792 133.037 23.648C133.501 23.904 134.021 24.12 134.597 24.296C135.189 24.472 135.805 24.56 136.445 24.56C137.293 24.56 137.973 24.416 138.485 24.128C138.997 23.84 139.253 23.376 139.253 22.736ZM157.695 17.168C157.695 18.448 157.431 19.552 156.903 20.48C156.391 21.408 155.663 22.128 154.719 22.64C153.791 23.136 152.687 23.384 151.407 23.384C150.143 23.384 149.039 23.136 148.095 22.64C147.151 22.144 146.415 21.432 145.887 20.504C145.375 19.576 145.119 18.464 145.119 17.168C145.119 15.904 145.383 14.808 145.911 13.88C146.439 12.952 147.175 12.24 148.119 11.744C149.063 11.232 150.159 10.976 151.407 10.976C152.671 10.976 153.767 11.232 154.695 11.744C155.639 12.256 156.375 12.976 156.903 13.904C157.431 14.832 157.695 15.92 157.695 17.168ZM151.407 14.168C150.751 14.168 150.231 14.432 149.847 14.96C149.479 15.472 149.295 16.208 149.295 17.168C149.295 18.16 149.479 18.912 149.847 19.424C150.215 19.936 150.735 20.192 151.407 20.192C152.079 20.192 152.599 19.936 152.967 19.424C153.335 18.896 153.519 18.144 153.519 17.168C153.519 16.224 153.327 15.488 152.943 14.96C152.575 14.432 152.063 14.168 151.407 14.168ZM171.158 15.488V17.696H167.078V15.608C167.078 15.112 166.926 14.752 166.622 14.528C166.334 14.288 165.95 14.168 165.47 14.168C165.15 14.168 164.846 14.208 164.558 14.288C164.286 14.368 164.022 14.472 163.766 14.6V17.696H159.686V14.048C159.686 13.616 159.774 13.264 159.95 12.992C160.142 12.72 160.398 12.472 160.718 12.248C161.262 11.864 161.95 11.56 162.782 11.336C163.614 11.096 164.526 10.976 165.518 10.976C167.326 10.976 168.718 11.376 169.694 12.176C170.67 12.96 171.158 14.064 171.158 15.488ZM159.686 16.664H163.766V22.976C163.59 23.024 163.334 23.072 162.998 23.12C162.678 23.168 162.326 23.192 161.942 23.192C161.158 23.192 160.582 23.056 160.214 22.784C159.862 22.512 159.686 22.008 159.686 21.272V16.664ZM167.078 16.664H171.158V22.976C170.982 23.024 170.726 23.072 170.39 23.12C170.07 23.168 169.718 23.192 169.334 23.192C168.55 23.192 167.974 23.056 167.606 22.784C167.254 22.512 167.078 22.008 167.078 21.272V16.664Z" fill="#DBAC2C"/>
<mask id="mask0_18377_1546" style="mask-type:alpha" maskUnits="userSpaceOnUse" x="0" y="0" width="33" height="34">
<path d="M10.4821 29.8901C10.4821 32.1599 8.57009 34 6.21151 34C3.85293 34 1.94092 32.1599 1.94092 29.8901C1.94092 27.6203 3.85293 25.7802 6.21151 25.7802C8.57009 25.7802 10.4821 27.6203 10.4821 29.8901Z" fill="#C4C4C4"/>
<path d="M31.0588 29.8901C31.0588 32.1599 29.1467 34 26.7882 34C24.4296 34 22.5176 32.1599 22.5176 29.8901C22.5176 27.6203 24.4296 25.7802 26.7882 25.7802C29.1467 25.7802 31.0588 27.6203 31.0588 29.8901Z" fill="#C4C4C4"/>
<path fill-rule="evenodd" clip-rule="evenodd" d="M30.1447 27.3485C30.3445 27.5925 30.2948 27.947 30.0492 28.1448C28.6936 29.2365 26.9702 29.89 25.0941 29.89H23.1767C22.8128 29.89 22.5121 29.5929 22.572 29.234C22.8984 27.276 24.6619 25.7802 26.7884 25.7802C28.15 25.7802 29.3627 26.3934 30.1447 27.3485ZM32.1894 25.4752C31.9899 25.88 31.443 25.9068 31.1131 25.5988C29.9948 24.5548 28.4696 23.9121 26.7884 23.9121C23.5887 23.9121 20.9541 26.2402 20.6138 29.2323C20.5727 29.5939 20.2817 29.89 19.9178 29.89H13.0823C12.7185 29.89 12.4275 29.5939 12.3864 29.2323C12.0461 26.2402 9.41144 23.9121 6.21176 23.9121C4.53055 23.9121 3.00533 24.5548 1.88696 25.5989C1.55709 25.9069 1.0102 25.8801 0.810655 25.4753C0.291601 24.4225 0 23.2373 0 21.9841V18.9663C0 18.6025 0.294967 18.3075 0.658825 18.3075H32.3412C32.705 18.3075 33 18.6025 33 18.9663V21.9841C33 23.2373 32.7084 24.4224 32.1894 25.4752ZM33 15.7806C33 16.1444 32.705 16.4394 32.3412 16.4394H0.658824C0.294965 16.4394 0 16.1444 0 15.7806V11.1203C0 10.7564 0.294967 10.4614 0.658825 10.4614H32.3412C32.705 10.4614 33 10.7564 33 11.1203V15.7806ZM0 7.90587V7.93449C0 8.29834 0.294967 8.59331 0.658825 8.59331H32.3412C32.705 8.59331 33 8.29834 33 7.93449V7.90588C33 3.53958 29.4604 0 25.0941 0H7.90588C3.53958 0 0 3.53958 0 7.90587ZM6.21176 25.7802C8.3383 25.7802 10.1018 27.276 10.4282 29.234C10.4881 29.5929 10.1874 29.89 9.82351 29.89H7.90588C6.0299 29.89 4.30652 29.2366 2.95093 28.1449C2.70531 27.9471 2.6556 27.5926 2.85538 27.3486C3.63737 26.3935 4.85015 25.7802 6.21176 25.7802Z" fill="#C4C4C4"/>
</mask>
<g mask="url(#mask0_18377_1546)">
<rect x="-1.94092" y="-2.6153" width="39.6" height="12.3296" fill="url(#paint0_linear_18377_1546)"/>
<rect x="-1.94092" y="17.5604" width="39.6" height="18.6812" fill="#FFA833"/>
<rect x="-1.94092" y="9.71429" width="39.6" height="8.21975" rx="3.62353" fill="#F17228"/>
<rect x="-27.1763" y="25.7802" width="37.6588" height="8.21975" fill="#F58D00"/>
<rect x="22.5176" y="25.7802" width="37.6588" height="8.21975" fill="#F58D00"/>
<ellipse cx="1.17304" cy="0.569968" rx="1.17304" ry="0.569968" transform="matrix(0.938889 -0.344219 0.368068 0.929799 8.25 3.06262)" fill="white"/>
<ellipse cx="16.4999" cy="2.82227" rx="1.17857" ry="0.567109" fill="white"/>
<ellipse cx="1.16887" cy="0.572108" rx="1.16887" ry="0.572108" transform="matrix(0.889322 0.457281 -0.4854 0.874292 21.7695 2.25516)" fill="white"/>
</g>
<defs>
<linearGradient id="paint0_linear_18377_1546" x1="17.6789" y1="-0.58057" x2="17.6789" y2="19.2683" gradientUnits="userSpaceOnUse">
<stop stop-color="#FFD16D"/>
<stop offset="1" stop-color="#FF7A00"/>
</linearGradient>
</defs>
</svg>
