<svg width="180" height="38" viewBox="0 0 180 38" fill="none" xmlns="http://www.w3.org/2000/svg">
<path d="M20.0234 4.10239C19.7552 3.60575 19.3635 3.59149 18.9171 3.57523C18.8666 3.57339 18.8153 3.57153 18.7634 3.56893C18.7239 3.56673 18.6803 3.56758 18.6347 3.56846C18.4537 3.57198 18.242 3.57609 18.1353 3.39212C18.0116 3.17883 18.0233 2.76663 18.033 2.42635C18.0361 2.31882 18.0389 2.21841 18.0372 2.1338C18.0198 1.34332 17.9836 0.503628 17.7313 0.22292C17.5411 0.0123098 16.9719 0.041487 16.447 0.0683954C16.2768 0.0771184 16.1113 0.085603 15.9649 0.085603H4.79219C4.56724 0.085603 4.33143 0.0634489 4.09974 0.0416813C3.64829 -0.000733808 3.21245 -0.0416812 2.90295 0.085603C2.45378 0.271231 2.42337 1.24667 2.39473 2.16519L2.39318 2.21461C2.36914 2.97288 2.21377 3.55799 1.69882 3.49906C1.0999 3.43161 0.503941 3.41035 0.233151 4.06594C-0.0866585 4.84161 -0.0207013 5.65358 0.0974381 7.10792C0.114314 7.31567 0.132254 7.53652 0.150287 7.77225H20.1962C20.2076 7.59995 20.2198 7.42986 20.2318 7.26253C20.3257 5.95406 20.4075 4.81402 20.0234 4.10239Z" fill="#8047F8"/>
<path fill-rule="evenodd" clip-rule="evenodd" d="M1.7114 9.21467C2.02448 14.3395 2.33414 19.4701 2.6438 24.6009L2.64399 24.604C2.81213 27.3898 2.98027 30.1757 3.14895 32.9606H3.78857C3.83215 33.3965 3.88202 33.9347 3.9346 34.5021C4.04134 35.6539 4.15925 36.9264 4.25838 37.7083H4.32913C4.98063 37.42 9.48454 35.0916 9.48656 25.8218C9.48573 25.7954 9.48646 25.7689 9.48872 25.7427H8.376C8.32213 25.7421 8.26992 25.7203 8.2274 25.6808C8.18487 25.6413 8.15439 25.5861 8.14064 25.5238C8.0322 25.1999 7.94478 24.8664 7.87913 24.5264C7.22453 24.9736 6.7047 25.6564 6.39373 26.4775C6.09854 25.6365 6.0599 24.6983 6.28457 23.8267C6.50924 22.9551 6.98292 22.2057 7.62284 21.7093C7.63109 19.0043 8.46846 16.3968 9.97646 14.3804L10 14.3553C10.0438 14.3095 10.0999 14.284 10.1581 14.2834C10.1918 14.2838 10.225 14.2925 10.2557 14.309C10.2868 14.3257 10.3146 14.35 10.3374 14.3804C11.863 16.3996 12.6959 19.0321 12.6701 21.7531C13.3219 22.2356 13.8052 22.9845 14.0303 23.8608C14.2554 24.7371 14.2069 25.6813 13.8939 26.5181C13.5846 25.6957 13.0644 25.0123 12.4085 24.5671C12.3685 24.8966 12.2947 25.219 12.1889 25.527C12.1523 25.6583 12.079 25.7427 12.0058 25.7427H10.8192C10.821 25.7584 10.8224 25.7742 10.8231 25.7901L10.8236 25.7937V25.8014C10.824 25.815 10.824 25.8287 10.8236 25.8424C10.8398 35.3783 15.6285 37.5428 16.0321 37.7083H16.1702C16.2054 36.9572 16.3202 35.9208 16.432 34.9104C16.5091 34.2142 16.5848 33.5302 16.6322 32.9606H17.2792C17.4863 29.4527 17.6993 25.9546 17.9123 22.4564L17.9124 22.4545L17.9125 22.4535C18.185 17.9789 18.4574 13.5042 18.7175 9.0087H1.75283C1.704 9.02024 1.70733 9.11685 1.7114 9.21467ZM10.1581 14.2834L10.1569 14.2834H10.1595L10.1581 14.2834Z" fill="#8047F8"/>
<path d="M34.824 16.192C34.024 16.192 33.328 16.448 32.736 16.96C32.16 17.472 31.872 18.224 31.872 19.216C31.872 20.208 32.152 20.944 32.712 21.424C33.272 21.904 33.968 22.144 34.8 22.144C35.28 22.144 35.704 22.088 36.072 21.976C36.456 21.848 36.776 21.72 37.032 21.592C37.336 21.816 37.56 22.056 37.704 22.312C37.864 22.568 37.944 22.88 37.944 23.248C37.944 23.888 37.624 24.4 36.984 24.784C36.36 25.168 35.464 25.36 34.296 25.36C32.968 25.36 31.808 25.128 30.816 24.664C29.84 24.2 29.08 23.512 28.536 22.6C28.008 21.672 27.744 20.544 27.744 19.216C27.744 17.808 28.04 16.648 28.632 15.736C29.224 14.808 30.008 14.12 30.984 13.672C31.96 13.208 33.024 12.976 34.176 12.976C35.312 12.976 36.192 13.184 36.816 13.6C37.456 14.016 37.776 14.552 37.776 15.208C37.776 15.512 37.704 15.8 37.56 16.072C37.416 16.328 37.248 16.552 37.056 16.744C36.784 16.616 36.456 16.496 36.072 16.384C35.688 16.256 35.272 16.192 34.824 16.192ZM51.7106 19.168C51.7106 20.448 51.4466 21.552 50.9186 22.48C50.4066 23.408 49.6786 24.128 48.7346 24.64C47.8066 25.136 46.7026 25.384 45.4226 25.384C44.1586 25.384 43.0546 25.136 42.1106 24.64C41.1666 24.144 40.4306 23.432 39.9026 22.504C39.3906 21.576 39.1346 20.464 39.1346 19.168C39.1346 17.904 39.3986 16.808 39.9266 15.88C40.4546 14.952 41.1906 14.24 42.1346 13.744C43.0786 13.232 44.1746 12.976 45.4226 12.976C46.6866 12.976 47.7826 13.232 48.7106 13.744C49.6546 14.256 50.3906 14.976 50.9186 15.904C51.4466 16.832 51.7106 17.92 51.7106 19.168ZM45.4226 16.168C44.7666 16.168 44.2466 16.432 43.8626 16.96C43.4946 17.472 43.3106 18.208 43.3106 19.168C43.3106 20.16 43.4946 20.912 43.8626 21.424C44.2306 21.936 44.7506 22.192 45.4226 22.192C46.0946 22.192 46.6146 21.936 46.9826 21.424C47.3506 20.896 47.5346 20.144 47.5346 19.168C47.5346 18.224 47.3426 17.488 46.9586 16.96C46.5906 16.432 46.0786 16.168 45.4226 16.168ZM57.0131 17.368V14.248H61.5491C61.6451 14.408 61.7331 14.624 61.8131 14.896C61.9091 15.168 61.9571 15.464 61.9571 15.784C61.9571 16.344 61.8291 16.752 61.5731 17.008C61.3331 17.248 61.0051 17.368 60.5891 17.368H57.0131ZM57.6131 13.48V16.888H53.7491V13.336C53.7491 12.248 53.9891 11.368 54.4691 10.696C54.9491 10.008 55.5891 9.504 56.3891 9.184C57.2051 8.864 58.1011 8.704 59.0771 8.704C60.2611 8.704 61.1331 8.864 61.6931 9.184C62.2531 9.488 62.5331 10.016 62.5331 10.768C62.5331 11.088 62.4611 11.376 62.3171 11.632C62.1891 11.888 62.0451 12.08 61.8851 12.208C61.5811 12.128 61.2611 12.064 60.9251 12.016C60.6051 11.952 60.2291 11.92 59.7971 11.92C59.1091 11.92 58.5731 12.04 58.1891 12.28C57.8051 12.504 57.6131 12.904 57.6131 13.48ZM53.7491 16.288H57.8291V24.976C57.6531 25.024 57.3971 25.072 57.0611 25.12C56.7411 25.168 56.3891 25.192 56.0051 25.192C55.2211 25.192 54.6451 25.056 54.2771 24.784C53.9251 24.512 53.7491 24.008 53.7491 23.272V16.288ZM66.9731 17.368V14.248H71.5091C71.6051 14.408 71.6931 14.624 71.7731 14.896C71.8691 15.168 71.9171 15.464 71.9171 15.784C71.9171 16.344 71.7891 16.752 71.5331 17.008C71.2931 17.248 70.9651 17.368 70.5491 17.368H66.9731ZM67.5731 13.48V16.888H63.7091V13.336C63.7091 12.248 63.9491 11.368 64.4291 10.696C64.9091 10.008 65.5491 9.504 66.3491 9.184C67.1651 8.864 68.0611 8.704 69.0371 8.704C70.2211 8.704 71.0931 8.864 71.6531 9.184C72.2131 9.488 72.4931 10.016 72.4931 10.768C72.4931 11.088 72.4211 11.376 72.2771 11.632C72.1491 11.888 72.0051 12.08 71.8451 12.208C71.5411 12.128 71.2211 12.064 70.8851 12.016C70.5651 11.952 70.1891 11.92 69.7571 11.92C69.0691 11.92 68.5331 12.04 68.1491 12.28C67.7651 12.504 67.5731 12.904 67.5731 13.48ZM63.7091 16.288H67.7891V24.976C67.6131 25.024 67.3571 25.072 67.0211 25.12C66.7011 25.168 66.3491 25.192 65.9651 25.192C65.1811 25.192 64.6051 25.056 64.2371 24.784C63.8851 24.512 63.7091 24.008 63.7091 23.272V16.288ZM75.9426 20.992L75.7986 18.304L81.3426 17.392C81.3106 17.072 81.1506 16.752 80.8626 16.432C80.5746 16.112 80.1266 15.952 79.5186 15.952C78.8786 15.952 78.3426 16.16 77.9106 16.576C77.4946 16.992 77.2706 17.584 77.2386 18.352L77.3826 20.368C77.5426 21.104 77.9026 21.616 78.4626 21.904C79.0386 22.192 79.6786 22.336 80.3826 22.336C81.0546 22.336 81.6946 22.248 82.3026 22.072C82.9106 21.896 83.3986 21.704 83.7666 21.496C84.0226 21.656 84.2386 21.88 84.4146 22.168C84.5906 22.456 84.6786 22.76 84.6786 23.08C84.6786 23.608 84.4786 24.048 84.0786 24.4C83.6946 24.736 83.1586 24.984 82.4706 25.144C81.7826 25.304 80.9906 25.384 80.0946 25.384C78.8466 25.384 77.7186 25.152 76.7106 24.688C75.7186 24.208 74.9266 23.496 74.3346 22.552C73.7586 21.608 73.4706 20.424 73.4706 19C73.4706 17.944 73.6386 17.032 73.9746 16.264C74.3266 15.496 74.7906 14.872 75.3666 14.392C75.9426 13.912 76.5826 13.56 77.2866 13.336C78.0066 13.096 78.7426 12.976 79.4946 12.976C80.6306 12.976 81.6226 13.2 82.4706 13.648C83.3186 14.08 83.9826 14.68 84.4626 15.448C84.9426 16.2 85.1826 17.072 85.1826 18.064C85.1826 18.608 85.0306 19.024 84.7266 19.312C84.4226 19.6 83.9986 19.784 83.4546 19.864L75.9426 20.992ZM89.1144 20.992L88.9704 18.304L94.5144 17.392C94.4824 17.072 94.3224 16.752 94.0344 16.432C93.7464 16.112 93.2984 15.952 92.6904 15.952C92.0504 15.952 91.5144 16.16 91.0824 16.576C90.6664 16.992 90.4424 17.584 90.4104 18.352L90.5544 20.368C90.7144 21.104 91.0744 21.616 91.6344 21.904C92.2104 22.192 92.8504 22.336 93.5544 22.336C94.2264 22.336 94.8664 22.248 95.4744 22.072C96.0824 21.896 96.5704 21.704 96.9384 21.496C97.1944 21.656 97.4104 21.88 97.5864 22.168C97.7624 22.456 97.8504 22.76 97.8504 23.08C97.8504 23.608 97.6504 24.048 97.2504 24.4C96.8664 24.736 96.3304 24.984 95.6424 25.144C94.9544 25.304 94.1624 25.384 93.2664 25.384C92.0184 25.384 90.8904 25.152 89.8824 24.688C88.8904 24.208 88.0984 23.496 87.5064 22.552C86.9304 21.608 86.6424 20.424 86.6424 19C86.6424 17.944 86.8104 17.032 87.1464 16.264C87.4984 15.496 87.9624 14.872 88.5384 14.392C89.1144 13.912 89.7544 13.56 90.4584 13.336C91.1784 13.096 91.9144 12.976 92.6664 12.976C93.8024 12.976 94.7944 13.2 95.6424 13.648C96.4904 14.08 97.1544 14.68 97.6344 15.448C98.1144 16.2 98.3544 17.072 98.3544 18.064C98.3544 18.608 98.2024 19.024 97.8984 19.312C97.5944 19.6 97.1704 19.784 96.6264 19.864L89.1144 20.992Z" fill="#574F4D"/>
<path d="M113.475 18.448C113.331 19.184 113.139 19.952 112.899 20.752C112.675 21.552 112.459 22.296 112.251 22.984C112.043 23.672 111.883 24.208 111.771 24.592C111.563 24.784 111.259 24.936 110.859 25.048C110.475 25.176 110.019 25.24 109.491 25.24C108.851 25.24 108.283 25.152 107.787 24.976C107.307 24.784 106.987 24.52 106.827 24.184C106.683 23.864 106.523 23.416 106.347 22.84C106.171 22.248 105.987 21.576 105.795 20.824C105.619 20.056 105.443 19.264 105.267 18.448C105.091 17.616 104.931 16.816 104.787 16.048C104.643 15.264 104.523 14.56 104.427 13.936C104.651 13.712 104.947 13.52 105.315 13.36C105.699 13.184 106.115 13.096 106.563 13.096C107.123 13.096 107.579 13.224 107.931 13.48C108.299 13.72 108.523 14.144 108.603 14.752C108.763 15.968 108.899 16.976 109.011 17.776C109.123 18.576 109.211 19.224 109.275 19.72C109.355 20.2 109.411 20.576 109.443 20.848C109.491 21.12 109.531 21.336 109.563 21.496H109.659C109.739 21.144 109.867 20.608 110.043 19.888C110.219 19.152 110.427 18.312 110.667 17.368C110.907 16.424 111.139 15.472 111.363 14.512C111.683 14.336 112.003 14.2 112.323 14.104C112.643 14.008 113.027 13.96 113.475 13.96C114.035 13.96 114.515 14.048 114.915 14.224C115.315 14.4 115.571 14.672 115.683 15.04C115.939 15.968 116.179 16.864 116.403 17.728C116.627 18.592 116.819 19.352 116.979 20.008C117.155 20.664 117.275 21.16 117.339 21.496H117.459C117.635 20.264 117.803 18.984 117.963 17.656C118.139 16.312 118.299 14.96 118.443 13.6C119.019 13.264 119.643 13.096 120.315 13.096C120.875 13.096 121.339 13.216 121.707 13.456C122.075 13.696 122.259 14.112 122.259 14.704C122.259 14.96 122.219 15.344 122.139 15.856C122.059 16.352 121.955 16.92 121.827 17.56C121.699 18.2 121.547 18.872 121.371 19.576C121.211 20.28 121.043 20.96 120.867 21.616C120.707 22.272 120.547 22.864 120.387 23.392C120.243 23.904 120.115 24.304 120.003 24.592C119.795 24.784 119.451 24.936 118.971 25.048C118.507 25.176 118.011 25.24 117.483 25.24C116.139 25.24 115.347 24.904 115.107 24.232C114.979 23.848 114.811 23.344 114.603 22.72C114.395 22.08 114.187 21.384 113.979 20.632C113.787 19.88 113.619 19.152 113.475 18.448ZM129.099 22.408C129.371 22.408 129.667 22.384 129.987 22.336C130.323 22.272 130.571 22.192 130.731 22.096V20.176L129.003 20.32C128.555 20.352 128.187 20.448 127.899 20.608C127.611 20.768 127.467 21.008 127.467 21.328C127.467 21.648 127.587 21.912 127.827 22.12C128.083 22.312 128.507 22.408 129.099 22.408ZM128.907 12.976C130.651 12.976 132.043 13.336 133.083 14.056C134.139 14.76 134.667 15.864 134.667 17.368V22.744C134.667 23.16 134.547 23.504 134.307 23.776C134.083 24.032 133.811 24.256 133.491 24.448C132.979 24.752 132.355 24.984 131.619 25.144C130.883 25.304 130.043 25.384 129.099 25.384C127.419 25.384 126.067 25.064 125.043 24.424C124.035 23.768 123.531 22.784 123.531 21.472C123.531 20.368 123.859 19.52 124.515 18.928C125.187 18.336 126.203 17.968 127.563 17.824L130.707 17.488V17.32C130.707 16.856 130.499 16.528 130.083 16.336C129.683 16.128 129.099 16.024 128.331 16.024C127.739 16.024 127.147 16.088 126.555 16.216C125.979 16.344 125.459 16.504 124.995 16.696C124.787 16.552 124.611 16.336 124.467 16.048C124.323 15.744 124.251 15.432 124.251 15.112C124.251 14.344 124.659 13.8 125.475 13.48C125.939 13.304 126.483 13.176 127.107 13.096C127.747 13.016 128.347 12.976 128.907 12.976ZM141.986 24.52C141.026 24.52 140.138 24.336 139.322 23.968C138.506 23.6 137.85 23 137.354 22.168C136.874 21.32 136.634 20.208 136.634 18.832C136.634 17.552 136.89 16.48 137.402 15.616C137.914 14.736 138.634 14.08 139.562 13.648C140.506 13.2 141.602 12.976 142.85 12.976C143.762 12.976 144.602 13.096 145.37 13.336C146.154 13.576 146.754 13.832 147.17 14.104C147.49 14.312 147.738 14.56 147.914 14.848C148.106 15.136 148.202 15.496 148.202 15.928V23.488H144.29V16.456C144.13 16.376 143.954 16.312 143.762 16.264C143.57 16.2 143.322 16.168 143.018 16.168C142.33 16.168 141.77 16.384 141.338 16.816C140.906 17.232 140.69 17.912 140.69 18.856C140.69 19.864 140.882 20.552 141.266 20.92C141.666 21.288 142.162 21.472 142.754 21.472C143.234 21.472 143.634 21.392 143.954 21.232C144.274 21.056 144.562 20.864 144.818 20.656L144.938 23.848C144.57 24.04 144.146 24.2 143.666 24.328C143.202 24.456 142.642 24.52 141.986 24.52ZM144.362 24.736V22.576H148.202V24.832C148.202 25.952 147.93 26.872 147.386 27.592C146.842 28.328 146.106 28.872 145.178 29.224C144.266 29.576 143.242 29.752 142.106 29.752C141.258 29.752 140.498 29.68 139.826 29.536C139.17 29.408 138.65 29.216 138.266 28.96C137.69 28.576 137.402 28.032 137.402 27.328C137.402 26.96 137.474 26.624 137.618 26.32C137.778 26.016 137.954 25.792 138.146 25.648C138.61 25.904 139.13 26.12 139.706 26.296C140.298 26.472 140.914 26.56 141.554 26.56C142.402 26.56 143.082 26.416 143.594 26.128C144.106 25.84 144.362 25.376 144.362 24.736ZM162.804 19.168C162.804 20.448 162.54 21.552 162.012 22.48C161.5 23.408 160.772 24.128 159.828 24.64C158.9 25.136 157.796 25.384 156.516 25.384C155.252 25.384 154.148 25.136 153.204 24.64C152.26 24.144 151.524 23.432 150.996 22.504C150.484 21.576 150.228 20.464 150.228 19.168C150.228 17.904 150.492 16.808 151.02 15.88C151.548 14.952 152.284 14.24 153.228 13.744C154.172 13.232 155.268 12.976 156.516 12.976C157.78 12.976 158.876 13.232 159.804 13.744C160.748 14.256 161.484 14.976 162.012 15.904C162.54 16.832 162.804 17.92 162.804 19.168ZM156.516 16.168C155.86 16.168 155.34 16.432 154.956 16.96C154.588 17.472 154.404 18.208 154.404 19.168C154.404 20.16 154.588 20.912 154.956 21.424C155.324 21.936 155.844 22.192 156.516 22.192C157.188 22.192 157.708 21.936 158.076 21.424C158.444 20.896 158.628 20.144 158.628 19.168C158.628 18.224 158.436 17.488 158.052 16.96C157.684 16.432 157.172 16.168 156.516 16.168ZM176.267 17.488V19.696H172.187V17.608C172.187 17.112 172.035 16.752 171.731 16.528C171.443 16.288 171.059 16.168 170.579 16.168C170.259 16.168 169.955 16.208 169.667 16.288C169.395 16.368 169.131 16.472 168.875 16.6V19.696H164.795V16.048C164.795 15.616 164.883 15.264 165.059 14.992C165.251 14.72 165.507 14.472 165.827 14.248C166.371 13.864 167.059 13.56 167.891 13.336C168.723 13.096 169.635 12.976 170.627 12.976C172.435 12.976 173.827 13.376 174.803 14.176C175.779 14.96 176.267 16.064 176.267 17.488ZM164.795 18.664H168.875V24.976C168.699 25.024 168.443 25.072 168.107 25.12C167.787 25.168 167.435 25.192 167.051 25.192C166.267 25.192 165.691 25.056 165.323 24.784C164.971 24.512 164.795 24.008 164.795 23.272V18.664ZM172.187 18.664H176.267V24.976C176.091 25.024 175.835 25.072 175.499 25.12C175.179 25.168 174.827 25.192 174.443 25.192C173.659 25.192 173.083 25.056 172.715 24.784C172.363 24.512 172.187 24.008 172.187 23.272V18.664Z" fill="#DBAC2C"/>
</svg>
