<svg width="36" height="25" viewBox="0 0 36 25" fill="none" xmlns="http://www.w3.org/2000/svg">
<path d="M18.2 10.896C17.912 12.368 17.528 13.904 17.048 15.504C16.6 17.104 16.168 18.592 15.752 19.968C15.336 21.344 15.016 22.416 14.792 23.184C14.376 23.568 13.768 23.872 12.968 24.096C12.2 24.352 11.288 24.48 10.232 24.48C8.952 24.48 7.816 24.304 6.824 23.952C5.864 23.568 5.224 23.04 4.904 22.368C4.616 21.728 4.296 20.832 3.944 19.68C3.592 18.496 3.224 17.152 2.84 15.648C2.488 14.112 2.136 12.528 1.784 10.896C1.432 9.232 1.112 7.632 0.824 6.096C0.536 4.528 0.296 3.12 0.104 1.872C0.552 1.424 1.144 1.04 1.88 0.719999C2.648 0.367999 3.48 0.191999 4.376 0.191999C5.496 0.191999 6.408 0.447999 7.112 0.959999C7.848 1.44 8.296 2.288 8.456 3.504C8.776 5.936 9.048 7.952 9.272 9.552C9.496 11.152 9.672 12.448 9.8 13.44C9.96 14.4 10.072 15.152 10.136 15.696C10.232 16.24 10.312 16.672 10.376 16.992H10.568C10.728 16.288 10.984 15.216 11.336 13.776C11.688 12.304 12.104 10.624 12.584 8.736C13.064 6.848 13.528 4.944 13.976 3.024C14.616 2.672 15.256 2.4 15.896 2.208C16.536 2.016 17.304 1.92 18.2 1.92C19.32 1.92 20.28 2.096 21.08 2.448C21.88 2.8 22.392 3.344 22.616 4.08C23.128 5.936 23.608 7.728 24.056 9.456C24.504 11.184 24.888 12.704 25.208 14.016C25.56 15.328 25.8 16.32 25.928 16.992H26.168C26.52 14.528 26.856 11.968 27.176 9.312C27.528 6.624 27.848 3.92 28.136 1.2C29.288 0.527999 30.536 0.191999 31.88 0.191999C33 0.191999 33.928 0.431999 34.664 0.911998C35.4 1.392 35.768 2.224 35.768 3.408C35.768 3.92 35.688 4.688 35.528 5.712C35.368 6.704 35.16 7.84 34.904 9.12C34.648 10.4 34.344 11.744 33.992 13.152C33.672 14.56 33.336 15.92 32.984 17.232C32.664 18.544 32.344 19.728 32.024 20.784C31.736 21.808 31.48 22.608 31.256 23.184C30.84 23.568 30.152 23.872 29.192 24.096C28.264 24.352 27.272 24.48 26.216 24.48C23.528 24.48 21.944 23.808 21.464 22.464C21.208 21.696 20.872 20.688 20.456 19.44C20.04 18.16 19.624 16.768 19.208 15.264C18.824 13.76 18.488 12.304 18.2 10.896Z" fill="#DBAC2C"/>
</svg>
